HIERARCHY
ROOT ui
{
	 OFFSET 0 0 0
	 CHANNELS 3 XPosition YPosition Z Position
	 EndSite
	 {
	 OFFSET 0 -1 0
	 }
}
ROOT li
{
	 OFFSET 0 0 0
	 CHANNELS 3 XPosition YPosition Z Position
	 EndSite
	 {
	 OFFSET 0 -1 0
	 }
}
ROOT ul
{
	 OFFSET 0 0 0
	 CHANNELS 3 XPosition YPosition Z Position
	 EndSite
	 {
	 OFFSET 0 -1 0
	 }
}
ROOT ll
{
	 OFFSET 0 0 0
	 CHANNELS 3 XPosition YPosition Z Position
	 EndSite
	 {
	 OFFSET 0 -1 0
	 }
}
ROOT tt
{
	 OFFSET 0 0 0
	 CHANNELS 3 XPosition YPosition Z Position
	 EndSite
	 {
	 OFFSET 0 -1 0
	 }
}
ROOT tb
{
	 OFFSET 0 0 0
	 CHANNELS 3 XPosition YPosition Z Position
	 EndSite
	 {
	 OFFSET 0 -1 0
	 }
}
ROOT td
{
	 OFFSET 0 0 0
	 CHANNELS 3 XPosition YPosition Z Position
	 EndSite
	 {
	 OFFSET 0 -1 0
	 }
}
ROOT v
{
	 OFFSET 0 0 0
	 CHANNELS 3 XPosition YPosition Z Position
	 EndSite
	 {
	 OFFSET 0 -1 0
	 }
}
ROOT bn
{
	 OFFSET 0 0 0
	 CHANNELS 3 XPosition YPosition Z Position
	 EndSite
	 {
	 OFFSET 0 -1 0
	 }
}
MOTION
Frames: 16
Frame Time: 0.002
0.01089161491394043	-6.90874993801117E-4	0		0.5637537231445312	-2.543163818359375	0		-0.9818533325195312	0.022363832473754883	0		-0.573785400390625	-2.50747412109375	0		2.31532568359375	-0.8227278442382813	0		3.792957763671875	0.07855361938476563	0		5.24731787109375	0.19512852478027343	0		6.01501025390625	0.5012203369140625	0		-0.14645867919921876	5.9211494140625	0		
-0.01887036895751953	-0.003395085096359253	0		0.5641395874023437	-2.543391357421875	0		-0.90474267578125	0.011680767059326172	0		-0.5333893432617187	-2.507471923828125	0		2.303830322265625	-0.8676807250976563	0		3.811876220703125	0.05810952377319336	0		5.24759765625	0.19508216857910157	0		6.0181328125	0.4931505737304688	0		-0.014004780769348144	5.9414951171875	0		
0.01150897216796875	-0.001215283989906311	0		0.5754384155273438	-2.550843505859375	0		-0.9794010009765625	0.012728196144104004	0		-0.6238217163085937	-2.49912158203125	0		2.288851806640625	-0.886593505859375	0		3.798368896484375	0.06723189544677734	0		5.247919921875	0.19500759887695313	0		6.0197333984375	0.5090848083496093	0		-0.13210073852539062	5.931357421875	0		
0.011879308700561524	-0.0015167759656906127	0		0.5950656127929688	-2.54246826171875	0		-0.892244140625	-1.812179982662201E-4	0		-0.5453687133789062	-2.500856689453125	0		2.323328857421875	-0.9384320678710938	0		3.805211669921875	0.037953258514404294	0		5.2586064453125	0.21272242736816407	0		6.03608154296875	0.5087236328125	0		0.0014369230270385742	5.9516435546875	0		
-0.0136900634765625	-3.7510201334953306E-4	0		0.576412353515625	-2.551428955078125	0		-0.9658057861328125	0.0017911590337753296	0		-0.5557003784179687	-2.492008056640625	0		2.33312255859375	-0.9748447265625	0		3.815526611328125	0.03259244155883789	0		5.25386328125	0.20468832397460937	0		6.0156357421875	0.5180050659179688	0		-0.013579070091247558	5.94058837890625	0		
0.012730755805969239	-0.002195039987564087	0		0.6278204345703124	-2.559674560546875	0		-0.8954461059570312	-0.00385691499710083	0		-0.5422704467773437	-2.498614501953125	0		2.317940185546875	-1.0118298950195312	0		3.813483154296875	0.005429440021514893	0		5.26017138671875	0.19743412780761718	0		6.02376953125	0.5017460021972656	0		-0.1325458526611328	5.93137890625	0		
-0.012772894859313965	-0.001102931022644043	0		0.5754948120117187	-2.554073974609375	0		-0.9681036987304688	-0.010955866813659667	0		-0.5376256103515625	-2.49508349609375	0		2.31659326171875	-1.0600867919921875	0		3.797618408203125	-0.013503303527832031	0		5.2557998046875	0.2063570556640625	0		6.00820849609375	0.5008984069824218	0		-0.13132615661621094	5.92998095703125	0		
0.013706801414489746	-0.002965333938598633	0		0.57813818359375	-2.552482666015625	0		-0.9566390991210938	-0.013589180946350098	0		-0.5580347290039063	-2.4961259765625	0		2.319350341796875	-1.10443359375	0		3.818597900390625	-0.043113304138183595	0		5.25700634765625	0.19016375732421875	0		6.01699267578125	0.517605712890625	0		0.019442314147949218	5.9568876953125	0		
-0.00869221591949463	0.0010297659635543823	0		0.5559237670898437	-2.544463134765625	0		-0.9561127319335937	-0.014047392845153809	0		-0.549256591796875	-2.488710693359375	0		2.343296142578125	-1.1401695556640625	0		3.81326953125	-0.0352536735534668	0		5.2667900390625	0.20481813049316405	0		6.02263720703125	0.5253663940429687	0		0.019703662872314454	5.95647265625	0		
0.00986849594116211	0.0012757769823074341	0		0.5965499267578125	-2.547581298828125	0		-0.9687601928710937	-0.025292711257934572	0		-0.55062646484375	-2.4911337890625	0		2.3611455078125	-1.1828037109375	0		3.818121337890625	-0.07458596801757812	0		5.27321826171875	0.19853265380859375	0		6.01801611328125	0.5173135986328125	0		0.0028411049842834474	5.94934521484375	0		
-0.010637639045715332	-0.0027972350120544433	0		0.569266357421875	-2.546500244140625	0		-0.9722498779296875	-0.028718807220458983	0		-0.5499351196289063	-2.491609619140625	0		2.359863037109375	-1.2341021728515624	0		3.806457763671875	-0.08761924743652344	0		5.26964599609375	0.1914320526123047	0		6.0144091796875	0.5092518920898438	0		-0.012099884033203124	5.938166015625	0		
0.015913893699645996	-0.004717229843139648	0		0.5767857055664063	-2.5580498046875	0		-0.9838680419921875	-0.0400179443359375	0		-0.5722725219726562	-2.494691650390625	0		2.350992919921875	-1.2632657470703126	0		3.8315361328125	-0.11630438232421875	0		5.28092333984375	0.17507456970214844	0		6.01081298828125	0.5012003173828125	0		-0.14424455261230468	5.91704736328125	0		
-0.01441274356842041	3.620460033416748E-4	0		0.553609130859375	-2.55306103515625	0		-0.9714639892578125	-0.05075445556640625	0		-0.5566177368164062	-2.499457763671875	0		2.3966875	-1.3183980712890624	0		3.82315966796875	-0.11438700103759766	0		5.27563525390625	0.18302388000488282	0		6.02034423828125	0.49992950439453127	0		-0.1288407440185547	5.9263046875	0		
0.010306185722351074	0.007464398860931396	0		0.6082901000976563	-2.557448974609375	0		-0.9708788452148438	-0.05128879928588867	0		-0.5626668701171875	-2.4878447265625	0		2.392666748046875	-1.357644775390625	0		3.84190185546875	-0.16294740295410157	0		5.2920625	0.17460113525390625	0		6.0201943359375	0.5168485717773438	0		0.003771270990371704	5.947498046875	0		
-0.00832258129119873	-0.004675612926483154	0		0.581043701171875	-2.557393310546875	0		-0.9743658447265625	-0.05575817108154297	0		-0.5171568603515625	-2.50214404296875	0		2.423595703125	-1.40049755859375	0		3.851455322265625	-0.16532440185546876	0		5.29748876953125	0.16639170837402345	0		6.037736328125	0.5164761352539062	0		0.004936644077301025	5.94600537109375	0		
0.008403700828552246	0.0035687949657440187	0		0.59686328125	-2.554089111328125	0		-0.9819114990234376	-0.06316078567504883	0		-0.5632096557617188	-2.490836669921875	0		2.422637939453125	-1.43677783203125	0		3.8694072265625	-0.20183535766601562	0		5.31290673828125	0.15803099060058592	0		6.03027197265625	0.51656787109375	0		0.0041055231094360356	5.946548828125	0		
